<?xml version="1.0" standalone="no"?><!DOCTYPE svg PUBLIC "-//W3C//DTD SVG 1.1//EN" "http://www.w3.org/Graphics/SVG/1.1/DTD/svg11.dtd"><svg t="1502357572305" class="icon" style="" viewBox="0 0 1024 1024" version="1.1" xmlns="http://www.w3.org/2000/svg" p-id="1802" xmlns:xlink="http://www.w3.org/1999/xlink" width="200" height="200"><defs><style type="text/css"></style></defs><path d="M476.69 441.38h70.62v35.31h-70.62zM476.69 512h70.62v35.31h-70.62zM476.69 582.62h70.62v35.31h-70.62zM476.69 653.242h70.62v35.31h-70.62zM476.69 918.068h70.62v35.31h-70.62z" fill="#FFB450" p-id="1803"></path><path d="M512.328 0a17.646 17.646 0 0 0-17.656 17.656v247.172h35.31V17.656A17.64 17.64 0 0 0 512.328 0z" fill="#625D6B" p-id="1804"></path><path d="M512.33 158.896m-35.31 0a35.31 35.31 0 1 0 70.62 0 35.31 35.31 0 1 0-70.62 0Z" fill="#736F7B" p-id="1805"></path><path d="M565.294 808.77V388.414h-35.31v422.492c-0.082 1.122-0.136 2.196 0 3.328v192.11h35.31V889.7l60.276 124.35 31.76-15.414-92.036-189.866zM459.364 388.414v419.02l-92.192 191.24 31.792 15.344 60.4-125.288v117.614h35.31V388.414z" fill="#FFDC78" p-id="1806"></path><path d="M688.552 1024H335.448a17.646 17.646 0 0 1-17.656-17.656 17.646 17.646 0 0 1 17.656-17.656h353.104a17.646 17.646 0 0 1 17.656 17.656 17.648 17.648 0 0 1-17.656 17.656z" fill="#CAC9CD" p-id="1807"></path><path d="M512.33 794.814m-87.95 0a87.95 87.95 0 1 0 175.9 0 87.95 87.95 0 1 0-175.9 0Z" fill="#736F7B" p-id="1808"></path><path d="M512.33 335.78m-87.95 0a87.95 87.95 0 1 0 175.9 0 87.95 87.95 0 1 0-175.9 0Z" fill="#FF4B4B" p-id="1809"></path><path d="M431.696 370.758c13.538 31.144 44.506 52.966 80.632 52.966s67.094-21.822 80.632-52.966h-161.264z" fill="#736F7B" p-id="1810"></path><path d="M424.378 794.81c0 9.172 1.798 17.842 4.404 26.158h167.09c2.606-8.314 4.404-16.984 4.404-26.158 0-9.412-1.87-18.306-4.606-26.808h-166.686c-2.74 8.502-4.606 17.394-4.606 26.808z" fill="#FF4B4B" p-id="1811"></path></svg>