<?xml version="1.0" standalone="no"?><!DOCTYPE svg PUBLIC "-//W3C//DTD SVG 1.1//EN" "http://www.w3.org/Graphics/SVG/1.1/DTD/svg11.dtd"><svg t="1502371098776" class="icon" style="" viewBox="0 0 1024 1024" version="1.1" xmlns="http://www.w3.org/2000/svg" p-id="2415" xmlns:xlink="http://www.w3.org/1999/xlink" width="200" height="200"><defs><style type="text/css"></style></defs><path d="M610.468864 511.408128c-17.014784 0-34.039808 15.777792-34.039808 35.244032 0 15.77472 17.025024 31.6416 34.039808 31.6416 25.561088 0 43.800576-15.86688 43.800576-31.6416 0.002048-19.46624-18.239488-35.244032-43.800576-35.244032M498.608128 347.213824c26.758144 0 43.777024-17.015808 43.777024-42.566656 0-26.758144-17.016832-42.535936-43.777024-42.535936-25.526272 0-49.85856 15.777792-49.85856 42.535936-0.001024 25.549824 24.332288 42.566656 49.85856 42.566656M370.92864 701.08672c-44.997632 0-77.831168-7.292928-120.39168-19.465216l-122.810368 62.000128 35.284992-104.537088C76.659712 578.29376 25.6 501.634048 25.6 408.014848c0-165.368832 155.635712-291.847168 345.32864-291.847168 167.817216 0 317.382656 99.72224 346.55744 240.780288-12.148736-2.441216-23.087104-3.64032-32.820224-3.64032-165.385216 0-293.049344 124.056576-293.049344 273.59744 0 25.55904 3.647488 48.620544 9.718784 72.97536-9.718784 1.206272-20.673536 1.206272-30.406656 1.206272m507.087872 119.1936l24.300544 87.552-92.413952-52.308992c-35.264512 7.283712-69.307392 18.266112-104.56576 18.266112-162.952192 0-291.856384-111.910912-291.856384-250.560512 0-138.569728 128.902144-250.456064 291.856384-250.456064C859.764736 372.772864 998.4 484.6592 998.4 623.228928c0 77.857792-52.283392 147.141632-120.383488 197.051392M257.855488 262.111232c-25.535488 0-52.291584 15.777792-52.291584 42.535936 0 25.549824 26.75712 42.566656 52.291584 42.566656 24.308736 0 43.776-17.015808 43.776-42.566656 0-26.758144-19.474432-42.535936-43.776-42.535936m543.540224 249.296896c-18.248704 0-34.04288 15.777792-34.04288 35.244032 0 15.77472 15.794176 31.6416 34.04288 31.6416 24.328192 0 42.576896-15.86688 42.576896-31.6416 0-19.46624-18.248704-35.244032-42.576896-35.244032m0 0" p-id="2416" fill="#6d6d6d"></path></svg>