<?xml version="1.0" standalone="no"?><!DOCTYPE svg PUBLIC "-//W3C//DTD SVG 1.1//EN" "http://www.w3.org/Graphics/SVG/1.1/DTD/svg11.dtd"><svg t="1502358925590" class="icon" style="" viewBox="0 0 1024 1024" version="1.1" xmlns="http://www.w3.org/2000/svg" p-id="9571" xmlns:xlink="http://www.w3.org/1999/xlink" width="200" height="200"><defs><style type="text/css"></style></defs><path d="M944.0512 687.232c-6.8096-93.8368-69.7728-172.4672-106.176-213.12 5.056-11.8272 17.344-80.2944-30.1312-127.0272 0.064-1.1136 0.064-2.24 0.064-3.328 0-184.3072-131.1872-316.9792-295.7952-317.5808C347.3664 26.7904 216.192 159.4496 216.192 343.7568c0 1.088-0.0128 2.2016 0.064 3.328-47.4752 46.72-35.1616 115.2-30.1312 127.0272-36.3648 40.6656-99.3536 119.2832-106.176 213.12-1.2288 24.6656 2.5856 60.5952 14.6304 76.5696 14.6816 19.4688 54.9888-3.9168 83.8144-66.1376 8.0128 28.8384 26.5216 72.8448 68.416 128.704-70.0928 16-90.0864 85.12-66.5088 122.9184 16.64 26.624 54.7072 48.5248 120.3328 48.5248 116.7488 0 168.2944-31.3728 191.3088-53.2224 4.6848-4.7616 11.456-7.0656 20.0832-7.0784 8.6144 0.0128 15.3856 2.3168 20.0576 7.0784 23.0016 21.8496 74.5856 53.2224 191.2832 53.2224 65.6512 0 103.7056-21.9008 120.32-48.5248 23.5904-37.7856 3.5968-106.9184-66.4704-122.9184 41.8816-55.8592 60.4032-99.8656 68.416-128.704 28.8256 62.2208 69.1328 85.6064 83.8272 66.1376C941.4912 747.84 945.3184 711.8976 944.0512 687.232L944.0512 687.232z" p-id="9572" fill="#6d6d6d"></path></svg>